<svg version="1.1" width="19.9219" height="19.9316" viewBox="0 0 19.9219 19.9316" xmlns="http://www.w3.org/2000/svg">
  <rect height="19.9316" opacity="0" width="19.9219" x="0" y="0"/>
  <path d="M9.96094 19.9219Q12.002 19.9219 13.8037 19.1406Q15.6055 18.3594 16.9824 16.9824Q18.3594 15.6055 19.1406 13.8037Q19.9219 12.002 19.9219 9.96094Q19.9219 7.91992 19.1406 6.11816Q18.3594 4.31641 16.9824 2.93945Q15.6055 1.5625 13.7988 0.78125Q11.9922 0 9.95117 0Q7.91016 0 6.1084 0.78125Q4.30664 1.5625 2.93457 2.93945Q1.5625 4.31641 0.78125 6.11816Q0 7.91992 0 9.96094Q0 12.002 0.78125 13.8037Q1.5625 15.6055 2.93945 16.9824Q4.31641 18.3594 6.11816 19.1406Q7.91992 19.9219 9.96094 19.9219ZM5.19531 9.9707Q5.19531 9.58984 5.43945 9.35059Q5.68359 9.11133 6.06445 9.11133L9.12109 9.11133L9.12109 6.05469Q9.12109 5.67383 9.35059 5.42969Q9.58008 5.18555 9.95117 5.18555Q10.332 5.18555 10.5713 5.42969Q10.8105 5.67383 10.8105 6.05469L10.8105 9.11133L13.877 9.11133Q14.2578 9.11133 14.4971 9.35059Q14.7363 9.58984 14.7363 9.9707Q14.7363 10.3418 14.4922 10.5713Q14.248 10.8008 13.877 10.8008L10.8105 10.8008L10.8105 13.8672Q10.8105 14.248 10.5713 14.4873Q10.332 14.7266 9.95117 14.7266Q9.58008 14.7266 9.35059 14.4873Q9.12109 14.248 9.12109 13.8672L9.12109 10.8008L6.06445 10.8008Q5.68359 10.8008 5.43945 10.5713Q5.19531 10.3418 5.19531 9.9707Z" fill="rgba(0,0,0,0.85)"/>
</svg>