<svg width="8" height="12" viewBox="0 0 8 12" xmlns="http://www.w3.org/2000/svg">
<path d="M0.972968 11.9768C1.24137 11.9768 1.46784 11.8853 1.65237 11.7023L6.67657 6.7687C6.91143 6.54406 7.02047 6.30279 7.02047 6.0116C7.02047 5.72042 6.91143 5.47082 6.68496 5.25451L1.65237 0.320937C1.46784 0.137903 1.24137 0.0463867 0.972968 0.0463867C0.436158 0.0463867 0 0.470691 0 1.00315C0 1.26938 0.10904 1.51065 0.301956 1.71032L4.71386 6.01992L0.301956 10.3212C0.10904 10.5126 0 10.7538 0 11.0201C0 11.5525 0.436158 11.9768 0.972968 11.9768Z" fill="white" fill-opacity="0.2"/>
</svg>
