<svg version="1.1"  width="19.9219" height="19.9316" viewBox="0 0 19.9219 19.9316" xmlns="http://www.w3.org/2000/svg" >
  <rect height="19.9316" opacity="0" width="19.9219" x="0" y="0"/>
  <path d="M9.96094 19.9219Q12.002 19.9219 13.8037 19.1406Q15.6055 18.3594 16.9824 16.9824Q18.3594 15.6055 19.1406 13.8037Q19.9219 12.002 19.9219 9.96094Q19.9219 7.91992 19.1406 6.11816Q18.3594 4.31641 16.9824 2.93945Q15.6055 1.5625 13.7988 0.78125Q11.9922 0 9.95117 0Q7.91016 0 6.1084 0.78125Q4.30664 1.5625 2.93457 2.93945Q1.5625 4.31641 0.78125 6.11816Q0 7.91992 0 9.96094Q0 12.002 0.78125 13.8037Q1.5625 15.6055 2.93945 16.9824Q4.31641 18.3594 6.11816 19.1406Q7.91992 19.9219 9.96094 19.9219ZM7.65625 14.9512Q7.42188 14.7168 7.42188 14.3994Q7.42188 14.082 7.64648 13.8672L11.7871 9.9707L7.64648 6.08398Q7.41211 5.86914 7.42188 5.54688Q7.43164 5.22461 7.66602 5Q7.88086 4.78516 8.18848 4.7998Q8.49609 4.81445 8.73047 5.03906L12.9199 8.97461Q13.2129 9.23828 13.3057 9.60449Q13.3984 9.9707 13.3057 10.3369Q13.2129 10.7031 12.9199 10.9668L8.73047 14.9121Q8.51562 15.1172 8.18359 15.127Q7.85156 15.1367 7.65625 14.9512Z" fill="rgba(0,0,0,0.85)"/>
</svg>
