<svg width="19.9219" height="19.9316" viewBox="0 0 19.9219 19.9316" xmlns="http://www.w3.org/2000/svg" >
<path d="M9.96094 19.9219Q12.002 19.9219 13.8037 19.1406Q15.6055 18.3594 16.9824 16.9824Q18.3594 15.6055 19.1406 13.8037Q19.9219 12.002 19.9219 9.96094Q19.9219 7.91992 19.1406 6.11816Q18.3594 4.31641 16.9824 2.93945Q15.6055 1.5625 13.7988 0.78125Q11.9922 0 9.95117 0Q7.91016 0 6.1084 0.78125Q4.30664 1.5625 2.93457 2.93945Q1.5625 4.31641 0.78125 6.11816Q0 7.91992 0 9.96094Q0 12.002 0.78125 13.8037Q1.5625 15.6055 2.93945 16.9824Q4.31641 18.3594 6.11816 19.1406Q7.91992 19.9219 9.96094 19.9219ZM9.42383 13.7402L6.02539 8.00781Q5.83984 7.68555 5.9668 7.33887Q6.09375 6.99219 6.45508 6.99219L13.4668 6.99219Q13.8281 6.99219 13.96 7.32422Q14.0918 7.65625 13.8867 8.00781L10.5176 13.7402Q10.3223 14.0723 9.96582 14.0625Q9.60938 14.0527 9.42383 13.7402Z" fill="white"/>
</svg>