<svg version="1.1" width="17.9785" height="17.998" viewBox="0 0 17.9785 17.998" xmlns="http://www.w3.org/2000/svg">
  <rect height="17.998" opacity="0" width="17.9785" x="0" y="0"/>
  <path d="M3.06641 17.998L14.9121 17.998Q16.4453 17.998 17.2119 17.2412Q17.9785 16.4844 17.9785 14.9707L17.9785 3.04688Q17.9785 1.5332 17.2119 0.776367Q16.4453 0.0195312 14.9121 0.0195312L3.06641 0.0195312Q1.5332 0.0195312 0.766602 0.776367Q0 1.5332 0 3.04688L0 14.9707Q0 16.4844 0.766602 17.2412Q1.5332 17.998 3.06641 17.998ZM14.1797 8.97461Q14.1797 9.27734 13.8867 9.57031L10.498 12.9785Q10.2832 13.1934 9.96094 13.1934Q9.64844 13.1934 9.43848 12.9785Q9.22852 12.7637 9.22852 12.4512Q9.22852 12.1289 9.46289 11.9043L10.7129 10.6738L11.9336 9.64844L9.79492 9.73633L4.57031 9.73633Q4.23828 9.73633 4.02344 9.52148Q3.80859 9.30664 3.80859 8.97461Q3.80859 8.64258 4.02344 8.42773Q4.23828 8.21289 4.57031 8.21289L9.79492 8.21289L11.9238 8.30078L10.7129 7.28516L9.46289 6.04492Q9.22852 5.80078 9.22852 5.50781Q9.22852 5.19531 9.43848 4.98535Q9.64844 4.77539 9.96094 4.77539Q10.293 4.77539 10.498 4.98047L13.8867 8.38867Q14.1797 8.68164 14.1797 8.97461Z" fill="rgba(0,0,0,0.85)"/>
</svg>