<svg width="19.9219" height="19.9316" viewBox="0 0 19.9219 19.9316" xmlns="http://www.w3.org/2000/svg" >
<path d="M9.96094 19.9219Q12.002 19.9219 13.8037 19.1406Q15.6055 18.3594 16.9824 16.9824Q18.3594 15.6055 19.1406 13.8037Q19.9219 12.002 19.9219 9.96094Q19.9219 7.91992 19.1406 6.11816Q18.3594 4.31641 16.9824 2.93945Q15.6055 1.5625 13.7988 0.78125Q11.9922 0 9.95117 0Q7.91016 0 6.1084 0.78125Q4.30664 1.5625 2.93457 2.93945Q1.5625 4.31641 0.78125 6.11816Q0 7.91992 0 9.96094Q0 12.002 0.78125 13.8037Q1.5625 15.6055 2.93945 16.9824Q4.31641 18.3594 6.11816 19.1406Q7.91992 19.9219 9.96094 19.9219ZM8.86719 14.7266Q8.61328 14.7266 8.4082 14.6191Q8.20312 14.5117 8.00781 14.2578L5.55664 11.25Q5.44922 11.1035 5.38574 10.9424Q5.32227 10.7812 5.32227 10.6152Q5.32227 10.2832 5.54688 10.0439Q5.77148 9.80469 6.10352 9.80469Q6.31836 9.80469 6.48926 9.89258Q6.66016 9.98047 6.8457 10.2246L8.82812 12.7832L12.998 6.08398Q13.2715 5.63477 13.7012 5.63477Q14.0137 5.63477 14.2676 5.83496Q14.5215 6.03516 14.5215 6.37695Q14.5215 6.54297 14.4434 6.70898Q14.3652 6.875 14.2773 7.02148L9.6875 14.2578Q9.53125 14.4922 9.32617 14.6094Q9.12109 14.7266 8.86719 14.7266Z" fill="black"/>
</svg>