<svg version="1.1" width="21.5234" height="21.5723" viewBox="0 0 21.5234 21.5723" xmlns="http://www.w3.org/2000/svg">
  <rect height="21.5723" opacity="0" width="21.5234" x="0" y="0"/>
  <path d="M5.80078 21.5723Q6.09375 21.5723 6.33301 21.4209Q6.57227 21.2695 6.92383 20.9473L10.4492 17.7246L17.0508 17.7344Q18.5059 17.7344 19.502 17.2119Q20.498 16.6895 21.0107 15.6934Q21.5234 14.6973 21.5234 13.2617L21.5234 5.78125Q21.5234 4.3457 21.0107 3.34961Q20.498 2.35352 19.502 1.83105Q18.5059 1.30859 17.0508 1.30859L4.47266 1.30859Q3.01758 1.30859 2.02148 1.83105Q1.02539 2.35352 0.512695 3.34961Q0 4.3457 0 5.78125L0 13.2617Q0 14.6973 0.512695 15.6934Q1.02539 16.6895 2.02148 17.207Q3.01758 17.7246 4.47266 17.7246L4.93164 17.7246L4.93164 20.5664Q4.93164 21.0254 5.15625 21.2988Q5.38086 21.5723 5.80078 21.5723ZM5.57617 6.73828Q5.33203 6.73828 5.16113 6.56738Q4.99023 6.39648 4.99023 6.15234Q4.99023 5.9082 5.16113 5.74219Q5.33203 5.57617 5.57617 5.57617L15.8203 5.57617Q16.0645 5.57617 16.2354 5.74219Q16.4062 5.9082 16.4062 6.15234Q16.4062 6.39648 16.2354 6.56738Q16.0645 6.73828 15.8203 6.73828ZM5.57617 10.0098Q5.33203 10.0098 5.16113 9.84375Q4.99023 9.67773 4.99023 9.42383Q4.99023 9.18945 5.16113 9.01367Q5.33203 8.83789 5.57617 8.83789L15.8203 8.83789Q16.0645 8.83789 16.2354 9.01367Q16.4062 9.18945 16.4062 9.42383Q16.4062 9.67773 16.2354 9.84375Q16.0645 10.0098 15.8203 10.0098ZM5.57617 13.291Q5.33203 13.291 5.16113 13.125Q4.99023 12.959 4.99023 12.7148Q4.99023 12.4609 5.16113 12.29Q5.33203 12.1191 5.57617 12.1191L12.2363 12.1191Q12.4805 12.1191 12.6514 12.29Q12.8223 12.4609 12.8223 12.7148Q12.8223 12.959 12.6514 13.125Q12.4805 13.291 12.2363 13.291Z" fill="rgba(0,0,0,0.85)"/>
</svg>