<svg version="1.1" width="20.7095" height="19.7807" viewBox="0 0 20.7095 19.7807" xmlns="http://www.w3.org/2000/svg">
  <rect height="19.7807" opacity="0" width="20.7095" x="0" y="0"/>
  <path d="M0.426281 12.5612Q0.680187 12.8151 1.07569 12.9226Q1.4712 13.03 1.91554 12.9323Q2.35987 12.8347 2.7505 12.4831Q2.84816 12.3952 3.00441 12.239Q3.16066 12.0827 3.38527 11.8532Q3.60987 11.6237 3.91261 11.3161Q4.21534 11.0085 4.60597 10.6179Q6.4712 8.72334 8.00929 7.19502Q9.54737 5.6667 10.7046 4.6169Q11.8618 3.56709 12.5942 3.10323Q13.3267 2.63936 13.5903 2.87373Q13.7954 3.05928 13.6245 3.57198Q13.4536 4.08467 13.0142 4.81221Q12.5747 5.53975 11.9888 6.38448Q11.4028 7.2292 10.7876 8.07881Q9.86964 9.36787 9.05421 10.4958Q8.23878 11.6237 7.63331 12.6003Q7.02784 13.5769 6.71046 14.4069Q6.39308 15.237 6.46144 15.9255Q6.5298 16.614 7.07667 17.1511Q7.79933 17.8835 8.81495 17.6931Q9.83058 17.5026 11.1831 16.5554Q12.5357 15.6081 14.2837 14.0847Q15.2603 13.2155 16.0562 12.5271Q16.8521 11.8386 17.3941 11.5065Q17.936 11.1745 18.1509 11.3991Q18.3169 11.5554 18.229 11.8776Q18.1411 12.1999 17.8775 12.6882Q17.6138 13.1765 17.2427 13.8112Q16.8911 14.4167 16.5347 15.0319Q16.1782 15.6472 15.9634 16.238Q15.7485 16.8288 15.7876 17.3513Q15.8267 17.8737 16.2466 18.3034Q16.8325 18.8894 17.9214 18.5866Q19.0103 18.2839 20.4067 16.9167Q20.6509 16.6726 20.6997 16.4089Q20.7485 16.1452 20.5532 15.9499Q20.3677 15.7644 20.1235 15.7839Q19.8794 15.8034 19.6841 15.989Q19.0005 16.653 18.4878 17.0241Q17.9751 17.3952 17.6528 17.5075Q17.3306 17.6198 17.2134 17.5026Q17.0767 17.3757 17.1841 17.0339Q17.2915 16.6921 17.6089 16.1013Q17.9263 15.5105 18.4243 14.6315Q18.8931 13.8015 19.2349 13.1179Q19.5767 12.4343 19.728 11.8728Q19.8794 11.3112 19.7866 10.8522Q19.6939 10.3933 19.2935 10.0026Q18.7661 9.48506 18.1558 9.4753Q17.5454 9.46553 16.8081 9.88057Q16.0708 10.2956 15.148 11.0573Q14.2251 11.819 13.0532 12.8444Q11.9497 13.821 11.2075 14.4069Q10.4653 14.9929 10.0015 15.2712Q9.53761 15.5495 9.27882 15.5886Q9.02003 15.6276 8.88331 15.4909Q8.73683 15.3347 8.75148 15.1052Q8.76612 14.8757 8.97609 14.4802Q9.18605 14.0847 9.6255 13.4401Q10.065 12.7956 10.7583 11.8288Q11.4517 10.862 12.438 9.48506Q13.5903 7.87373 14.4644 6.55049Q15.3384 5.22725 15.8169 4.17256Q16.2954 3.11787 16.2759 2.30244Q16.2564 1.48701 15.6314 0.881546Q14.7817 0.0514675 13.7222 0.00263936Q12.6626-0.0461888 11.1734 0.808303Q9.68409 1.6628 7.5503 3.51826Q5.41652 5.37373 2.39894 8.35225Q1.99855 8.75264 1.68605 9.05537Q1.37355 9.35811 1.14405 9.58272Q0.914562 9.80733 0.758312 9.96358Q0.602062 10.1198 0.514172 10.2175Q0.143078 10.6374 0.0454215 11.0817Q-0.0522347 11.5261 0.0600699 11.9167Q0.172375 12.3073 0.426281 12.5612Z" fill="rgba(0,0,0,0.85)"/>
</svg>