<svg version="1.1" width="21.1035" height="17.998" viewBox="0 0 21.1035 17.998" xmlns="http://www.w3.org/2000/svg">
  <rect height="17.998" opacity="0" width="21.1035" x="0" y="0"/>
  <path d="M2.24609 8.20312L18.8574 8.20312Q19.9805 8.20312 20.542 7.65137Q21.1035 7.09961 21.1035 5.9668L21.1035 2.23633Q21.1035 1.11328 20.542 0.566406Q19.9805 0.0195312 18.8574 0.0195312L2.24609 0.0195312Q1.12305 0.0195312 0.561523 0.566406Q0 1.11328 0 2.23633L0 5.9668Q0 7.09961 0.561523 7.65137Q1.12305 8.20312 2.24609 8.20312ZM2.24609 17.998L18.8574 17.998Q19.9805 17.998 20.542 17.4463Q21.1035 16.8945 21.1035 15.7715L21.1035 12.0312Q21.1035 10.918 20.542 10.3662Q19.9805 9.81445 18.8574 9.81445L2.24609 9.81445Q1.12305 9.81445 0.561523 10.3662Q0 10.918 0 12.0312L0 15.7715Q0 16.8945 0.561523 17.4463Q1.12305 17.998 2.24609 17.998Z" fill="rgba(0,0,0,0.85)"/>
</svg>