<svg width="22" height="23" viewBox="0 0 22 23" fill="none" xmlns="http://www.w3.org/2000/svg">
<path d="M0.748047 15.5527C0.748047 18.834 2.87695 21.5781 5.46484 21.5781H8.69727C9.97656 22.252 11.5391 22.6621 13.2871 22.6621H14.6348C15.8555 22.6621 16.9102 22.584 17.6035 22.418C18.9609 22.0859 19.8008 21.1484 19.8008 19.9473C19.8008 19.7031 19.7617 19.4688 19.6836 19.2441C20.3574 18.7461 20.7383 18.0039 20.7383 17.1934C20.7383 16.793 20.6699 16.4023 20.5137 16.0801C20.9727 15.6211 21.2363 14.9473 21.2363 14.2344C21.2363 13.7754 21.1191 13.2871 20.9141 12.9355C21.1973 12.5352 21.3633 11.998 21.3633 11.4023C21.3633 9.94727 20.2207 8.79492 18.7754 8.79492H15.0742C14.8398 8.79492 14.6836 8.6875 14.6836 8.49219C14.6836 7.42773 16.3535 4.95703 16.3535 2.97461C16.3535 1.62695 15.4062 0.650391 14.1074 0.650391C13.1504 0.650391 12.5156 1.14844 11.8809 2.35938C10.6895 4.63477 9.27344 6.66602 6.95898 9.49805H5.09375C2.69141 9.49805 0.748047 12.2227 0.748047 15.5527ZM6.42188 15.5039C6.42188 13.3945 6.90039 12.0469 8.22852 10.2695C9.69336 8.30664 11.7246 5.95312 13.1992 3.0332C13.5605 2.29102 13.8145 2.125 14.166 2.125C14.5859 2.125 14.8789 2.42773 14.8789 2.97461C14.8789 4.55664 13.209 6.95898 13.209 8.49219C13.209 9.5957 14.127 10.2695 15.2891 10.2695H18.7754C19.4102 10.2695 19.8887 10.7578 19.8887 11.4023C19.8887 11.8711 19.7422 12.1738 19.3516 12.5449C19.1758 12.7109 19.1562 12.9062 19.3027 13.0918C19.625 13.5605 19.7617 13.8535 19.7617 14.2344C19.7617 14.7031 19.5469 15.0938 19.0977 15.4355C18.8535 15.6113 18.7559 15.8652 18.9023 16.168C19.1465 16.627 19.2637 16.8418 19.2637 17.1934C19.2637 17.7207 18.9316 18.1211 18.2285 18.4824C18.0039 18.6094 17.9551 18.7949 18.043 19.0098C18.2871 19.6055 18.3262 19.7031 18.3262 19.9473C18.3262 20.4258 17.9746 20.8066 17.252 20.9824C16.6758 21.1289 15.7578 21.1973 14.6445 21.1875L13.2969 21.168C9.20508 21.1289 6.42188 18.8242 6.42188 15.5039ZM2.22266 15.5527C2.22266 13.0332 3.58984 10.9727 5.09375 10.9727H6.00195C5.26953 12.3398 4.94727 13.7656 4.94727 15.4746C4.94727 17.3105 5.61133 18.8926 6.79297 20.1035H5.46484C3.73633 20.1035 2.22266 18.0234 2.22266 15.5527Z" fill="white" fill-opacity="0.5"/>
</svg>
