<svg width="21" height="22" viewBox="0 0 21 22" fill="none" xmlns="http://www.w3.org/2000/svg">
<path d="M5.00195 14.4746C4.94336 18.166 7.94141 20.9688 12.6387 21.0078L14.0254 21.0176C15.334 21.0273 16.3008 20.9297 16.8477 20.7832C17.6387 20.5781 18.4102 20.0996 18.4102 19.1426C18.4102 18.752 18.3125 18.4785 18.1758 18.2539C18.0977 18.127 18.1074 18.0195 18.2344 17.9707C18.8594 17.7168 19.3867 17.1309 19.3867 16.3203C19.3867 15.8711 19.25 15.4609 19.0352 15.1777C18.918 15.0312 18.9375 14.9043 19.1133 14.7871C19.5723 14.5234 19.8848 13.957 19.8848 13.293C19.8848 12.834 19.7383 12.3262 19.4648 12.082C19.3086 11.9355 19.3379 11.8379 19.5039 11.6914C19.8262 11.4277 20.0215 10.959 20.0215 10.3926C20.0215 9.41602 19.2598 8.625 18.2637 8.625H14.6992C13.791 8.625 13.1953 8.15625 13.1953 7.41406C13.1953 6.04688 14.8848 3.56641 14.8848 1.7793C14.8848 0.841797 14.2793 0.285156 13.4883 0.285156C12.7656 0.285156 12.4043 0.783203 12.0137 1.54492C10.5195 4.47461 8.50781 6.84766 6.97461 8.87891C5.67578 10.6074 5.04102 12.082 5.00195 14.4746ZM0.0800781 14.543C0.0800781 17.541 1.95508 20.0508 4.45508 20.0508H6.24219C4.42578 18.7324 3.60547 16.7305 3.64453 14.4453C3.68359 11.9062 4.66016 10.0996 5.54883 8.99609H4.08398C1.81836 8.99609 0.0800781 11.4375 0.0800781 14.543Z" fill="#F8CF5A"/>
</svg>
