<svg version="1.1" width="20.3125" height="19.1504" viewBox="0 0 20.3125 19.1504" xmlns="http://www.w3.org/2000/svg">
  <rect height="19.1504" opacity="0" width="20.3125" x="0" y="0"/>
  <path d="M0 17.6953Q0 18.2324 0.292969 18.5254Q0.585938 18.8184 1.11328 18.8184Q1.47461 18.8184 1.93359 18.5645L6.03516 16.3477L6.03516 0.166016Q5.9082 0.224609 5.76172 0.297852Q5.61523 0.371094 5.48828 0.449219L0.859375 3.10547Q0.419922 3.34961 0.209961 3.70605Q0 4.0625 0 4.55078ZM7.37305 16.1621L12.2949 18.9258Q12.4121 18.9844 12.5244 19.0332Q12.6367 19.082 12.7441 19.1113L12.7441 3.17383L7.91992 0.224609Q7.79297 0.146484 7.65137 0.0878906Q7.50977 0.0292969 7.37305 0ZM14.0723 19.082Q14.1504 19.0625 14.2236 19.0283Q14.2969 18.9941 14.3652 18.9551L19.4531 16.0645Q19.8926 15.8203 20.1025 15.4639Q20.3125 15.1074 20.3125 14.6191L20.3125 1.46484Q20.3125 0.927734 20.0195 0.634766Q19.7266 0.341797 19.1992 0.341797Q18.8379 0.341797 18.3789 0.595703L14.0723 2.98828Z" fill="rgba(0,0,0,0.85)"/>
</svg>