<svg version="1.1" width="26.3867" height="17.998" viewBox="0 0 26.3867 17.998" xmlns="http://www.w3.org/2000/svg">
  <rect height="17.998" opacity="0" width="26.3867" x="0" y="0"/>
  <path d="M0 14.9707Q0 16.4844 0.766602 17.2412Q1.5332 17.998 3.06641 17.998L12.4805 17.998L12.4805 13.5742Q11.3086 13.4375 10.4297 12.8271Q9.55078 12.2168 9.05762 11.2354Q8.56445 10.2539 8.56445 9.00391Q8.56445 7.74414 9.05762 6.7627Q9.55078 5.78125 10.4297 5.1709Q11.3086 4.56055 12.4805 4.43359L12.4805 0.0195312L3.06641 0.0195312Q1.5332 0.0195312 0.766602 0.776367Q0 1.5332 0 3.04688L0 4.26758L3.4082 4.26758Q4.375 4.26758 4.91211 4.7998Q5.44922 5.33203 5.44922 6.29883L5.44922 11.709Q5.44922 12.666 4.91211 13.2031Q4.375 13.7402 3.4082 13.7402L0 13.7402ZM0 12.3633L3.38867 12.3633Q4.07227 12.3633 4.07227 11.6699L4.07227 6.33789Q4.07227 5.64453 3.38867 5.64453L0 5.64453ZM9.86328 8.99414Q9.86328 9.84375 10.1953 10.5273Q10.5273 11.2109 11.1133 11.6553Q11.6992 12.0996 12.4805 12.2363L12.4805 5.78125Q11.6992 5.91797 11.1133 6.35742Q10.5273 6.79688 10.1953 7.47559Q9.86328 8.1543 9.86328 8.99414ZM13.8574 17.998L23.3301 17.998Q24.8633 17.998 25.625 17.2412Q26.3867 16.4844 26.3867 14.9707L26.3867 13.7402L22.9883 13.7402Q22.0117 13.7402 21.4795 13.2031Q20.9473 12.666 20.9473 11.709L20.9473 6.29883Q20.9473 5.33203 21.4795 4.7998Q22.0117 4.26758 22.9883 4.26758L26.3867 4.26758L26.3867 3.04688Q26.3867 1.5332 25.625 0.776367Q24.8633 0.0195312 23.3301 0.0195312L13.8574 0.0195312L13.8574 4.45312Q15.0195 4.59961 15.8984 5.21484Q16.7773 5.83008 17.2705 6.80664Q17.7637 7.7832 17.7734 9.00391Q17.793 10.2539 17.3047 11.2305Q16.8164 12.207 15.9277 12.8174Q15.0391 13.4277 13.8574 13.5742ZM13.8574 12.2363Q14.6387 12.0996 15.2246 11.6553Q15.8105 11.2109 16.1377 10.5273Q16.4648 9.84375 16.4746 8.99414Q16.4746 8.1543 16.1475 7.47559Q15.8203 6.79688 15.2295 6.35254Q14.6387 5.9082 13.8574 5.78125ZM22.3242 11.6699Q22.3242 12.3633 22.998 12.3633L26.3867 12.3633L26.3867 5.64453L22.998 5.64453Q22.3242 5.64453 22.3242 6.33789Z" fill="rgba(0,0,0,0.85)"/>
</svg>
