<svg version="1.1" width="18.4277" height="20.5566" viewBox="0 0 18.4277 20.5566" xmlns="http://www.w3.org/2000/svg">
 <g>
  <rect height="20.5566" opacity="0" width="18.4277" x="0" y="0"/>
  <path d="M1.47461 16.6406L16.9531 16.6406Q17.6465 16.6406 18.0371 16.3184Q18.4277 15.9961 18.4277 15.459Q18.4277 14.9707 18.1445 14.5117Q17.8613 14.0527 17.4365 13.6133Q17.0117 13.1738 16.5918 12.7344Q16.2695 12.4023 16.0889 11.8652Q15.9082 11.3281 15.8203 10.7227Q15.7324 10.1172 15.6934 9.55078Q15.6641 7.67578 15.2881 6.21094Q14.9121 4.74609 14.1211 3.75Q13.3301 2.75391 12.0312 2.28516Q11.7578 1.32812 11.0254 0.664062Q10.293 0 9.20898 0Q8.13477 0 7.40234 0.664062Q6.66992 1.32812 6.39648 2.28516Q5.09766 2.75391 4.30176 3.75Q3.50586 4.74609 3.13477 6.21094Q2.76367 7.67578 2.73438 9.55078Q2.69531 10.1172 2.60742 10.7227Q2.51953 11.3281 2.33887 11.8652Q2.1582 12.4023 1.83594 12.7344Q1.41602 13.1738 0.991211 13.6133Q0.566406 14.0527 0.283203 14.5117Q0 14.9707 0 15.459Q0 15.9961 0.390625 16.3184Q0.78125 16.6406 1.47461 16.6406ZM9.20898 20.5566Q10.0391 20.5566 10.6934 20.1953Q11.3477 19.834 11.7432 19.248Q12.1387 18.6621 12.207 17.9785L6.2207 17.9785Q6.2793 18.6621 6.67969 19.248Q7.08008 19.834 7.73438 20.1953Q8.38867 20.5566 9.20898 20.5566Z" fill="rgba(0,0,0,0.85)"/>
 </g>
</svg>