<svg version="1.1" width="19.082" height="19.2676" viewBox="0 0 19.082 19.2676" xmlns:xlink="http://www.w3.org/1999/xlink">
  <rect height="19.2676" opacity="0" width="19.082" x="0" y="0"/>
  <path d="M0 7.79297Q0 9.4043 0.605469 10.8154Q1.21094 12.2266 2.28516 13.3008Q3.35938 14.375 4.77051 14.9805Q6.18164 15.5859 7.79297 15.5859Q9.0625 15.5859 10.2148 15.1953Q11.3672 14.8047 12.3242 14.1211L17.1289 18.9355Q17.3047 19.1016 17.5146 19.1846Q17.7246 19.2676 17.959 19.2676Q18.291 19.2676 18.5449 19.1162Q18.7988 18.9648 18.9404 18.7012Q19.082 18.4375 19.082 18.1152Q19.082 17.8809 18.999 17.6758Q18.916 17.4707 18.7598 17.3145L13.9844 12.5098Q14.7363 11.5332 15.1611 10.332Q15.5859 9.13086 15.5859 7.79297Q15.5859 6.18164 14.9805 4.77051Q14.375 3.35938 13.3008 2.28516Q12.2266 1.21094 10.8154 0.605469Q9.4043 0 7.79297 0Q6.18164 0 4.77051 0.605469Q3.35938 1.21094 2.28516 2.28516Q1.21094 3.35938 0.605469 4.77051Q0 6.18164 0 7.79297ZM1.66992 7.79297Q1.66992 6.52344 2.14355 5.41504Q2.61719 4.30664 3.46191 3.46191Q4.30664 2.61719 5.41504 2.14355Q6.52344 1.66992 7.79297 1.66992Q9.0625 1.66992 10.1709 2.14355Q11.2793 2.61719 12.1191 3.46191Q12.959 4.30664 13.4375 5.41504Q13.916 6.52344 13.916 7.79297Q13.916 9.0625 13.4375 10.1709Q12.959 11.2793 12.1191 12.1191Q11.2793 12.959 10.1709 13.4375Q9.0625 13.916 7.79297 13.916Q6.52344 13.916 5.41504 13.4375Q4.30664 12.959 3.46191 12.1191Q2.61719 11.2793 2.14355 10.1709Q1.66992 9.0625 1.66992 7.79297Z" fill="rgba(0,0,0,0.85)"/>
</svg>