<svg version="1.1" width="19.9219" height="19.9316" xmlns="http://www.w3.org/2000/svg"> 
  <rect height="19.9316" opacity="0" width="19.9219" x="0" y="0"/>
  <path d="M9.96094 19.9219Q12.002 19.9219 13.8037 19.1406Q15.6055 18.3594 16.9824 16.9824Q18.3594 15.6055 19.1406 13.8037Q19.9219 12.002 19.9219 9.96094Q19.9219 7.91992 19.1406 6.11816Q18.3594 4.31641 16.9824 2.93945Q15.6055 1.5625 13.7988 0.78125Q11.9922 0 9.95117 0Q7.91016 0 6.1084 0.78125Q4.30664 1.5625 2.93457 2.93945Q1.5625 4.31641 0.78125 6.11816Q0 7.91992 0 9.96094Q0 12.002 0.78125 13.8037Q1.5625 15.6055 2.93945 16.9824Q4.31641 18.3594 6.11816 19.1406Q7.91992 19.9219 9.96094 19.9219ZM9.98047 13.8867Q8.88672 13.8867 7.98828 13.3545Q7.08984 12.8223 6.55762 11.9287Q6.02539 11.0352 6.02539 9.94141Q6.02539 8.84766 6.55762 7.9541Q7.08984 7.06055 7.98828 6.52832Q8.88672 5.99609 9.98047 5.99609Q11.0645 5.99609 11.958 6.52832Q12.8516 7.06055 13.3838 7.9541Q13.916 8.84766 13.916 9.94141Q13.916 11.0352 13.3838 11.9287Q12.8516 12.8223 11.958 13.3545Q11.0645 13.8867 9.98047 13.8867Z" fill="rgba(0,0,0,0.85)"/>
</svg>