<svg width="20.1074" height="18.5254" viewBox="0 0 20.1074 18.5254" fill="none" xmlns="http://www.w3.org/2000/svg">
<path d="M2.38281 18.4863L17.7246 18.4863Q18.457 18.4863 18.9941 18.1689Q19.5312 17.8516 19.8193 17.3096Q20.1074 16.7676 20.1074 16.1035Q20.1074 15.8008 20.0293 15.5078Q19.9512 15.2148 19.7949 14.9316L12.1094 1.21094Q11.7773 0.615234 11.2207 0.307617Q10.6641 0 10.0586 0Q9.45312 0 8.8916 0.307617Q8.33008 0.615234 7.99805 1.21094L0.322266 14.9414Q0 15.5273 0 16.1035Q0 16.7676 0.292969 17.3096Q0.585938 17.8516 1.11816 18.1689Q1.65039 18.4863 2.38281 18.4863ZM10.0684 11.9531Q9.28711 11.9531 9.26758 11.1523L9.14062 5.83008Q9.13086 5.44922 9.38965 5.19531Q9.64844 4.94141 10.0586 4.94141Q10.459 4.94141 10.7275 5.2002Q10.9961 5.45898 10.9863 5.83984L10.8398 11.1523Q10.8301 11.9531 10.0684 11.9531ZM10.0684 15.2246Q9.62891 15.2246 9.30176 14.9219Q8.97461 14.6191 8.97461 14.1797Q8.97461 13.75 9.29688 13.4375Q9.61914 13.125 10.0684 13.125Q10.5078 13.125 10.835 13.4326Q11.1621 13.7402 11.1621 14.1797Q11.1621 14.6191 10.835 14.9219Q10.5078 15.2246 10.0684 15.2246Z" fill="rgba(248, 207, 90, 1)"/>
</svg>